# xmcd
#
# Track frame offsets: 
#        150
#        20683
#        48989
#        65303
#        83394
#        96230
#        114361
#        132726
#        150755
#        174847
#        196072
#        209011
#        226839
#        244101
#        258947
#
# Disc length: 3667 seconds
#
# Revision: 0
# Processed by: cddbd v1.5.2PL0 Copyright (c) Steve Scherf et al.
# Submitted via: ExactAudioCopyFreeDBPlugin 1.0
#
DISCID=b70e510f
DTITLE=Dennis Stroughmatt and Creole Stomp - Long Roads and Bloodshot Eyes
DYEAR=2007
DGENRE=Creole
TTITLE0=Bloodshot Eyes
TTITLE1=Bon Pas Blues
TTITLE2=Moi Tout Seul
TTITLE3=Good Hearted Man
TTITLE4=Boyer Stomp
TTITLE5=Prends-tu Ma Vie
TTITLE6=Parlez-nous a Boire
TTITLE7=Carbontown
TTITLE8=Johnny Billy Goat
TTITLE9=Colinda Blues
TTITLE10=Johnny Can't Dance
TTITLE11=Long Road Waltz
TTITLE12=Madame Edouard
TTITLE13=Jamais Lache Pas
TTITLE14=Apartment Number 9
EXTD=
EXTT0=
EXTT1=
EXTT2=
EXTT3=
EXTT4=
EXTT5=
EXTT6=
EXTT7=
EXTT8=
EXTT9=
EXTT10=
EXTT11=
EXTT12=
EXTT13=
EXTT14=
PLAYORDER=
